# xmcd
#
# Track frame offsets:
#      150
#      14902
#      30936
#      47026
#      64007
#
# Disc length: 1067 seconds
#
# Revision: 0
# Processed by: cddbd v1.5.1PL0 Copyright (c) Steve Scherf et al.
# Submitted via: SoundClick v1.0
#
DISCID=3a042905
DTITLE=Freight Train Todd Haugen - Freight Train Todd Haugen Real Country
DYEAR=1900
DGENRE=
TTITLE0=Thats A Good Thing
TTITLE1=What's Up With That
TTITLE2=Everything Gone
TTITLE3=Do You Still Cry Out For Me
TTITLE4=Lord You Got Me Thinkin
EXTD=
EXTT0=
EXTT1=
EXTT2=
EXTT3=
EXTT4=
PLAYORDER=
